<?xml version="1.0" encoding="utf-8"?>
<!-- Generator: Adobe Illustrator 23.0.2, SVG Export Plug-In . SVG Version: 6.00 Build 0)  -->
<svg version="1.1" id="f698cf57-4f6b-4529-a39c-70592e247574"
	 xmlns="http://www.w3.org/2000/svg" xmlns:xlink="http://www.w3.org/1999/xlink" x="0px" y="0px" viewBox="0 0 513 443.9"
	 style="enable-background:new 0 0 513 443.9;" xml:space="preserve">
<style type="text/css">
	.st0{opacity:0.8;}
	.st1{fill:url(#SVGID_1_);}
	.st2{fill:#292929;}
	.st3{opacity:0.1;fill:#FFFFFF;enable-background:new    ;}
	.st4{opacity:0.2;fill:#292929;enable-background:new    ;}
	.st5{opacity:0.5;}
	.st6{opacity:0.3;}
	.st7{fill:url(#SVGID_2_);}
	.st8{fill:#FFFFFF;}
	.st9{opacity:0.2;enable-background:new    ;}
	.st10{opacity:0.1;enable-background:new    ;}
	.st11{fill:url(#SVGID_3_);}
	.st12{opacity:5.000000e-02;enable-background:new    ;}
	.st13{opacity:0.5;fill:#4D8AF0;enable-background:new    ;}
	.st14{fill:#47E6B1;}
	.st15{opacity:0.5;fill:#F55F44;enable-background:new    ;}
</style>
<title>Taken</title>
<g class="st0">
	
		<linearGradient id="SVGID_1_" gradientUnits="userSpaceOnUse" x1="264.8" y1="578.4893" x2="264.8" y2="716.5323" gradientTransform="matrix(1 0 0 -1 0 728)">
		<stop  offset="0" style="stop-color:#808080;stop-opacity:0.25"/>
		<stop  offset="0.54" style="stop-color:#808080;stop-opacity:0.12"/>
		<stop  offset="1" style="stop-color:#808080;stop-opacity:0.1"/>
	</linearGradient>
	<ellipse class="st1" cx="264.8" cy="80.5" rx="89.1" ry="69"/>
</g>
<ellipse class="st2" cx="264.8" cy="80.5" rx="87.1" ry="67.5"/>
<path class="st3" d="M191.8,88c0-37.3,39-67.5,87.1-67.5c14.9-0.1,29.7,3,43.4,9C307,19.1,286.9,12.8,265,12.8
	c-48.1,0-87.1,30.2-87.1,67.5c0,25,17.6,46.9,43.7,58.5C203.3,126.5,191.8,108.3,191.8,88z"/>
<polygon class="st4" points="264.8,107.6 361.4,274.9 458,442.2 264.8,442.2 71.6,442.2 168.2,274.9 "/>
<g class="st5">
	<g class="st6">
		
			<linearGradient id="SVGID_2_" gradientUnits="userSpaceOnUse" x1="167.79" y1="-486.912" x2="167.79" y2="-374.1088" gradientTransform="matrix(0.95 0.32 0.32 -0.95 240.13 -371.67)">
			<stop  offset="0" style="stop-color:#808080;stop-opacity:0.25"/>
			<stop  offset="0.54" style="stop-color:#808080;stop-opacity:0.12"/>
			<stop  offset="1" style="stop-color:#808080;stop-opacity:0.1"/>
		</linearGradient>
		<path class="st7" d="M295.6,105.4l7.5-22.3c5.3-15.9-0.4-33.4-14.1-43.1l0.1,0c-3-2.1-6.2-3.7-9.6-4.9l0,0l-0.1,0l-0.1,0l0,0
			c-3.3-1.1-6.8-1.8-10.3-1.9c-1.2-0.1-2.5-0.1-3.7,0c-2.1,0.1-4.3,0.4-6.4,0.9c-0.6,0.1-1.2,0.3-1.8,0.5c-0.6,0.2-1.2,0.3-1.8,0.5
			c-1.2,0.4-2.3,0.8-3.4,1.3c-0.6,0.2-1.1,0.5-1.7,0.8c-1.6,0.8-3.2,1.7-4.7,2.8c-0.5,0.3-1,0.7-1.5,1.1c-6,4.6-10.5,10.8-12.9,18
			l-11.8,35.1c-1.9,5.5-2.4,11.4-1.6,17.1c0.1,0.9,0.3,1.8,0.5,2.6s0.4,1.7,0.6,2.6c0.2,0.6,0.3,1.1,0.5,1.7
			c0.3,0.8,0.6,1.7,0.9,2.5c0.2,0.5,0.5,1.1,0.7,1.6c0.5,1.1,1,2.1,1.6,3.1c0.6,1,1.2,2,1.9,3c0.5,0.7,1.1,1.4,1.6,2.1
			c0.8,0.9,1.5,1.8,2.4,2.6c3.6,3.7,8,6.5,12.8,8.4l0,0l0,0l0.2,0.1c0.3-0.5,0.5-0.9,0.9-1.3c1.8-2.5,5-4.3,8-3.6
			c0.2,0,0.4,0.1,0.7,0.2c1.5,0.5,3,1.5,4.5,2c1.1,0.5,2.3,0.5,3.4,0c3-1.6,1.9-6.5,4.4-8.7c0.1-0.1,0.2-0.2,0.4-0.3
			c0,0-0.1-0.1-0.1-0.1c2-1.2,4.7-0.4,6.9,0.4c2.4,0.9,5.6,1.4,7.3-0.6c1.1-1.4,1.1-3.4,2.1-4.9c1.3-1.6,3.6-1.8,5.7-1.5h0.1
			c4,1.6,8.3-1.1,8-5.3C293.4,111.9,295.2,106.5,295.6,105.4z"/>
	</g>
	<path class="st8" d="M243,130.9c1.8-2.4,4.8-4.1,7.7-3.5c2.9,0.7,5.7,3.4,8.3,2.1c3.6-1.9,1-8.9,6.8-9.4c1.2-0.1,2.4,0.1,3.5,0.6
		c2.4,1,6.2,2.1,8.1-0.1c1.1-1.3,1-3.3,2.1-4.7c1.2-1.6,3.5-1.8,5.5-1.5l0.1,0c3.8,1.6,8-1,7.7-5.2c-0.4-5.5,1.4-10.6,1.7-11.8
		l7.2-21.5c6.4-19.2-3.9-39.9-23-46.4l0,0c-19.2-6.4-39.9,3.9-46.4,23L221,86.5c-6.1,18.4,3.1,38.5,21.2,45.7
		C242.4,131.8,242.7,131.3,243,130.9z"/>
	<path class="st9" d="M256.5,52.7c2.2,0,4,1.8,4,4s-1.8,3.4-4,3.4c-2.2,0-4-1.2-4-3.4S254.3,52.7,256.5,52.7z"/>
	<circle class="st9" cx="279" cy="64.2" r="4"/>
</g>
<path class="st10" d="M348.5,60.5c1.1,4.4,1.7,8.9,1.7,13.4c0,37.3-39,67.5-87.1,67.5c-39.4,0-72.6-20.3-83.4-48
	c8,30.9,43.2,54.1,85.4,54.1c48.1,0,87.1-30.2,87.1-67.5C352.2,73.3,350.9,66.7,348.5,60.5z"/>
<g class="st0">
	
		<linearGradient id="SVGID_3_" gradientUnits="userSpaceOnUse" x1="264.8" y1="570.9946" x2="264.8" y2="665.1768" gradientTransform="matrix(1 0 0 -1 0 728)">
		<stop  offset="0" style="stop-color:#808080;stop-opacity:0.25"/>
		<stop  offset="0.54" style="stop-color:#808080;stop-opacity:0.12"/>
		<stop  offset="1" style="stop-color:#808080;stop-opacity:0.1"/>
	</linearGradient>
	<ellipse class="st11" cx="264.8" cy="109.9" rx="180.2" ry="47.1"/>
</g>
<path class="st8" d="M264.8,64.4c-96.2,0-174.2,20.4-174.2,45.5H439C439,84.8,361,64.4,264.8,64.4z"/>
<path class="st8" d="M264.8,155.5c96.2,0,174.2-20.4,174.2-45.5H90.6C90.6,135.1,168.6,155.5,264.8,155.5z"/>
<path class="st12" d="M264.8,155.5c96.2,0,174.2-20.4,174.2-45.5H90.6C90.6,135.1,168.6,155.5,264.8,155.5z"/>
<path class="st12" d="M192.1,98h145.4c5.8,0,10.5,4.7,10.5,10.5v2.8c0,5.8-4.7,10.5-10.5,10.5H192.1c-5.8,0-10.5-4.7-10.5-10.5v-2.8
	C181.6,102.7,186.3,98,192.1,98z"/>
<path class="st13" d="M83.4,35.2c-1-0.5-1.6-1.6-1.2-2.7c0-0.1,0-0.2,0-0.2l0,0c0-0.6-0.4-1.1-1-1.2c-0.4,0-0.7,0.1-1,0.4l0,0
	c0,0.1-0.1,0.1-0.1,0.2c-0.5,1-1.6,1.6-2.7,1.2c-0.1,0-0.2,0-0.2,0l0,0c-0.6,0-1.1,0.4-1.2,1c0,0.4,0.1,0.7,0.4,1l0,0
	c0.1,0.1,0.1,0.1,0.2,0.1c1,0.5,1.6,1.6,1.2,2.7c0,0.1,0,0.2,0,0.2l0,0c0,0.6,0.4,1.2,1,1.2c0.4,0,0.7-0.1,1-0.4l0,0
	c0-0.1,0.1-0.1,0.1-0.2c0.5-1,1.6-1.6,2.7-1.2c0.1,0,0.2,0,0.2,0l0,0c0.6,0,1.1-0.4,1.2-1c0-0.4-0.1-0.7-0.4-1l0,0
	C83.6,35.3,83.5,35.2,83.4,35.2z"/>
<path class="st13" d="M393.1,221.3c-1-0.5-1.5-1.6-1.2-2.7c0-0.1,0-0.2,0-0.2l0,0c0-0.6-0.4-1.1-1-1.2c-0.4,0-0.7,0.1-1,0.4l0,0
	c0,0.1-0.1,0.1-0.1,0.2c-0.5,1-1.6,1.6-2.7,1.2c-0.1,0-0.2,0-0.2,0l0,0c-0.6,0-1.1,0.4-1.2,1c0,0.4,0.1,0.7,0.4,1l0,0
	c0.1,0.1,0.1,0.1,0.2,0.1c1,0.5,1.5,1.6,1.2,2.7c0,0.1,0,0.2,0,0.2l0,0c0,0.6,0.4,1.2,1,1.2c0.4,0,0.7-0.1,1-0.4l0,0
	c0-0.1,0.1-0.1,0.1-0.2c0.5-1,1.6-1.6,2.7-1.2c0.1,0,0.2,0,0.2,0l0,0c0.6,0,1.1-0.4,1.2-1c0-0.4-0.1-0.7-0.4-1l0,0
	C393.2,221.4,393.2,221.4,393.1,221.3z"/>
<path class="st13" d="M51.2,307.7c-1-0.5-1.6-1.6-1.2-2.7c0-0.1,0-0.2,0-0.2l0,0c0-0.6-0.4-1.1-1-1.2c-0.4,0-0.7,0.1-1,0.4l0,0
	c0,0.1-0.1,0.1-0.1,0.2c-0.5,1-1.6,1.6-2.7,1.2c-0.1,0-0.2,0-0.2,0l0,0c-0.6,0-1.1,0.4-1.2,1c0,0.4,0.1,0.7,0.4,1l0,0
	c0.1,0.1,0.1,0.1,0.2,0.1c1,0.5,1.6,1.6,1.2,2.7c0,0.1,0,0.2,0,0.2l0,0c0,0.6,0.4,1.2,1,1.2c0.4,0,0.7-0.1,1-0.4l0,0
	c0-0.1,0.1-0.1,0.1-0.2c0.5-1,1.6-1.6,2.7-1.2c0.1,0,0.2,0,0.2,0l0,0c0.6,0,1.1-0.4,1.2-1c0-0.4-0.1-0.7-0.4-1l0,0
	C51.4,307.8,51.3,307.7,51.2,307.7z"/>
<path class="st13" d="M17.7,106.3c-1-0.5-1.5-1.6-1.2-2.7c0-0.1,0-0.2,0-0.2l0,0c0-0.6-0.4-1.1-1-1.2c-0.4,0-0.7,0.1-1,0.4l0,0
	c0,0.1-0.1,0.1-0.1,0.2c-0.5,1-1.6,1.6-2.7,1.2c-0.1,0-0.2,0-0.2,0l0,0c-0.6,0-1.1,0.4-1.2,1c0,0.4,0.1,0.7,0.4,1l0,0
	c0.1,0.1,0.1,0.1,0.2,0.1c1,0.5,1.6,1.6,1.2,2.7c0,0.1,0,0.2,0,0.2l0,0c0,0.6,0.4,1.2,1,1.2c0.4,0,0.7-0.1,1-0.4l0,0
	c0-0.1,0.1-0.1,0.1-0.2c0.5-1,1.6-1.6,2.7-1.2c0.1,0,0.2,0,0.2,0l0,0c0.6,0,1.1-0.4,1.2-1c0-0.4-0.1-0.7-0.4-1l0,0
	C17.9,106.4,17.8,106.4,17.7,106.3z"/>
<path class="st13" d="M387,4.1c-1-0.5-1.5-1.6-1.2-2.7c0-0.1,0-0.2,0-0.2l0,0c0-0.6-0.4-1.1-1-1.2c-0.4,0-0.7,0.1-1,0.4l0,0
	c0,0.1-0.1,0.1-0.1,0.2c-0.5,1-1.6,1.6-2.7,1.2c-0.1,0-0.2,0-0.2,0l0,0c-0.6-0.1-1.2,0.3-1.3,0.9c-0.1,0.5,0.1,1,0.6,1.2l0,0
	C380,4,380.1,4,380.2,4c1,0.5,1.5,1.6,1.2,2.7c0,0.1,0,0.2,0,0.2l0,0c-0.1,0.6,0.4,1.2,1,1.2c0.4,0,0.8-0.2,1.1-0.5l0,0
	c0-0.1,0.1-0.1,0.1-0.2c0.5-1,1.6-1.6,2.7-1.2c0.1,0,0.2,0,0.2,0l0,0c0.6,0,1.1-0.4,1.2-1c0-0.4-0.1-0.7-0.4-1l0,0
	C387.2,4.2,387.1,4.2,387,4.1z"/>
<g class="st5">
	<rect x="68.9" y="156.9" class="st14" width="1.8" height="10.3"/>
	<rect x="64.7" y="161.1" class="st14" width="10.3" height="1.8"/>
</g>
<g class="st5">
	<rect x="506.9" y="108.2" class="st14" width="1.8" height="10.3"/>
	<rect x="502.7" y="112.5" class="st14" width="10.3" height="1.8"/>
</g>
<g class="st5">
	<rect x="446.1" y="277.9" class="st14" width="1.8" height="10.3"/>
	<rect x="441.8" y="282.2" class="st14" width="10.3" height="1.8"/>
</g>
<circle class="st15" cx="441.8" cy="49.8" r="3.7"/>
<circle class="st15" cx="5.7" cy="7.8" r="3.7"/>
<circle class="st15" cx="115.2" cy="217.7" r="3.7"/>
<ellipse class="st12" cx="144.4" cy="93.9" rx="20.7" ry="4.3"/>
<ellipse class="st12" cx="144.4" cy="126.2" rx="20.7" ry="4.3"/>
<ellipse class="st12" cx="379.8" cy="93.9" rx="20.7" ry="4.3"/>
<ellipse class="st12" cx="379.8" cy="126.2" rx="20.7" ry="4.3"/>
<ellipse class="st12" cx="264.8" cy="75.7" rx="20.7" ry="4.3"/>
<ellipse class="st12" cx="280" cy="31.3" rx="20.7" ry="4.3"/>
<ellipse class="st12" cx="240.5" cy="49.5" rx="20.7" ry="4.3"/>
<ellipse class="st12" cx="316.5" cy="57.4" rx="20.7" ry="4.3"/>
<ellipse class="st12" cx="264.8" cy="139" rx="20.7" ry="4.3"/>
<g>
	<g>
		<path class="st2" d="M331.1,327.5l0.6-4.7l5.3-14.5c0.1-0.2,0-0.4-0.2-0.5c-0.2-0.1-0.4,0-0.5,0.2l-7.4,13.5l-2.4,2.7l0.5-3.5
			l5.3-14.5c0.1-0.2,0-0.4-0.2-0.5c-0.2-0.1-0.4,0-0.5,0.2l-7.4,13.5l-3.2,3.7c0,0,0,0.1-0.1,0.1l-5,10.9l-4.3-9.4l7.8-17.3
			c0,0,0-0.1,0-0.1l0.6-4.7l5.3-14.5c0.1-0.2,0-0.4-0.2-0.5c-0.2-0.1-0.4,0-0.5,0.2l-7.4,13.5l-3.2,3.7c0,0,0,0.1-0.1,0.1l-5.7,12.6
			l-5.2-11.4l8-17.6c0,0,0-0.1,0-0.1l0.6-4.8l5.3-14.5c0.1-0.2,0-0.4-0.2-0.5c-0.2-0.1-0.4,0-0.5,0.2l-7.4,13.5l-2.4,2.7l0.5-3.5
			l5.3-14.5c0.1-0.2,0-0.4-0.2-0.5c-0.2-0.1-0.4,0-0.5,0.2l-7.4,13.5l-3.2,3.7c0,0,0,0.1-0.1,0.1l-4,8.8l-9.1-19.8
			c-0.1-0.2-0.3-0.3-0.5-0.2l-20.8,6.2l4-8.8c0,0,0-0.1,0-0.1l0.6-4.8l5.3-14.5c0.1-0.2,0-0.4-0.2-0.5c-0.2-0.1-0.4,0-0.5,0.2
			l-7.4,13.5l-2.4,2.7l0.5-3.5l5.3-14.5c0.1-0.2,0-0.4-0.2-0.5c-0.2-0.1-0.4,0-0.5,0.2l-7.4,13.5l-3.2,3.7c0,0,0,0.1-0.1,0.1
			l-8,17.6l-12,3.6l5.7-12.6c0,0,0-0.1,0-0.1l0.6-4.7l5.3-14.5c0.1-0.2,0-0.4-0.2-0.5c-0.2-0.1-0.4,0-0.5,0.2l-7.4,13.5l-3.2,3.7
			c0,0,0,0.1-0.1,0.1l-7.8,17.3l-9.9,2.9l5-10.9c0,0,0-0.1,0-0.1l0.6-4.7l5.3-14.5c0.1-0.2,0-0.4-0.2-0.5c-0.2-0.1-0.4,0-0.5,0.2
			l-7.4,13.5l-2.4,2.7l0.5-3.5l5.3-14.5c0.1-0.2,0-0.4-0.2-0.5c-0.2-0.1-0.4,0-0.5,0.2l-7.4,13.5l-3.2,3.7c0,0,0,0.1-0.1,0.1
			l-28.6,62.8c-0.1,0.2,0,0.4,0.2,0.5l10.6,4.8l4.5-9.9c0,0,0-0.1,0.1-0.1c0,0,2.1-2.5,5.5-1c3.4,1.5,2.9,4.7,2.9,4.8
			c0,0,0,0.1,0,0.1l-4.5,9.9l8,3.6l4.5-9.9c0,0,0-0.1,0.1-0.1c0,0,2.1-2.5,5.5-1c3.4,1.5,2.9,4.7,2.9,4.8c0,0,0,0.1,0,0.1l-4.5,9.9
			l14,6.4l8.8-19.3c0,0,0-0.1,0.1-0.1c0,0,3.3-4,8.8-1.5c5.4,2.5,4.6,7.5,4.6,7.6c0,0,0,0.1,0,0.1l-8.8,19.3l14,6.4l4.5-9.9
			c0,0,0-0.1,0.1-0.1c0,0,2.1-2.5,5.5-1c3.4,1.5,2.9,4.7,2.9,4.8c0,0,0,0.1,0,0.1l-4.5,9.9l9.6,4.4l4.5-9.9c0,0,0-0.1,0.1-0.1
			c0,0,2.1-2.5,5.5-1c3.4,1.5,2.9,4.7,2.9,4.8c0,0,0,0.1,0,0.1l-4.5,9.9l9,4.1c0.2,0.1,0.4,0,0.5-0.2l28.6-62.8
			C331.1,327.5,331.1,327.5,331.1,327.5z M219,325.8c-0.1,0.2-0.3,0.3-0.5,0.2l-7.7-3.5c-0.2-0.1-0.3-0.3-0.2-0.5l4.4-9.6
			c0,0,0-0.1,0-0.1c0,0,2.1-2.5,5.5-0.9c3.4,1.5,2.9,4.7,2.9,4.8c0,0,0,0.1,0,0.1L219,325.8L219,325.8z M235.4,333.2
			c-0.1,0.2-0.3,0.3-0.5,0.2l-7.7-3.5c-0.2-0.1-0.3-0.3-0.2-0.5l4.4-9.6c0,0,0-0.1,0-0.1c0,0,2.1-2.5,5.5-0.9
			c3.4,1.5,2.9,4.7,2.9,4.8c0,0,0,0.1,0,0.1L235.4,333.2L235.4,333.2z M245.5,311.1c-0.1,0.2-0.3,0.3-0.5,0.2l-7.7-3.5
			c-0.2-0.1-0.3-0.3-0.2-0.5l4.4-9.6c0,0,0-0.1,0.1-0.1c0,0,2.1-2.5,5.5-1c3.4,1.5,2.9,4.7,2.9,4.8c0,0,0,0.1,0,0.1L245.5,311.1
			L245.5,311.1z M266.4,333.4c-0.1,0.2-0.3,0.3-0.5,0.2l-9.4-4.3c-0.2-0.1-0.3-0.3-0.2-0.5l5.3-11.6c0,0,0-0.1,0.1-0.1
			c0,0,2.5-3,6.6-1.1c4.1,1.8,3.5,5.7,3.5,5.7c0,0,0,0.1,0,0.1L266.4,333.4L266.4,333.4z M278.6,306.5c-0.1,0.2-0.3,0.3-0.5,0.2
			l-9.4-4.3c-0.2-0.1-0.3-0.3-0.2-0.5l5.3-11.6c0,0,0-0.1,0.1-0.1c0,0,2.5-3,6.6-1.1c4.1,1.8,3.5,5.7,3.5,5.7c0,0,0,0.1,0,0.1
			L278.6,306.5L278.6,306.5z M285.2,355.8c-0.1,0.2-0.3,0.3-0.5,0.2l-7.7-3.5c-0.2-0.1-0.3-0.3-0.2-0.5l4.4-9.6c0,0,0-0.1,0-0.1
			c0,0,2.1-2.5,5.5-0.9c3.4,1.5,2.9,4.7,2.9,4.8c0,0,0,0.1,0,0.1L285.2,355.8L285.2,355.8z M295.3,333.7c-0.1,0.2-0.3,0.3-0.5,0.2
			l-7.7-3.5c-0.2-0.1-0.3-0.3-0.2-0.5l4.4-9.6c0,0,0-0.1,0.1-0.1c0,0,2.1-2.5,5.5-0.9c3.4,1.5,2.9,4.7,2.9,4.8c0,0,0,0.1,0,0.1
			L295.3,333.7L295.3,333.7z M303.3,364c-0.1,0.2-0.3,0.3-0.5,0.2l-7.7-3.5c-0.2-0.1-0.3-0.3-0.2-0.5l4.4-9.6c0,0,0-0.1,0-0.1
			c0,0,2.1-2.5,5.5-1c3.4,1.5,2.9,4.7,2.9,4.8c0,0,0,0.1,0,0.1C307.6,354.4,303.3,364,303.3,364z"/>
	</g>
</g>
</svg>
